<svg width="24" height="24" viewBox="0 0 24 24" fill="none" xmlns="http://www.w3.org/2000/svg">
<circle cx="12" cy="12" r="12" fill="#075171"/>
<path d="M8.99108 19.9999C9.24723 20.0005 9.50032 19.9628 9.73175 19.8897C9.96319 19.8165 10.1671 19.7097 10.3285 19.5771L18.61 12.7206C18.8621 12.5161 19 12.2597 19 11.995C19 11.7303 18.8621 11.4738 18.61 11.2693L10.037 4.41282C9.74595 4.17945 9.32774 4.0327 8.87435 4.00484C8.42097 3.97698 7.96955 4.07029 7.6194 4.26426C7.26925 4.45823 7.04906 4.73696 7.00726 5.03913C6.96545 5.34131 7.10547 5.64217 7.3965 5.87554L14.0998 11.2327C14.5954 11.6288 14.6017 12.3803 14.1128 12.7846L7.65369 18.1258C7.44403 18.2936 7.31084 18.4978 7.2699 18.7144C7.22896 18.931 7.28197 19.1509 7.42266 19.3481C7.56335 19.5452 7.78584 19.7114 8.06379 19.8269C8.34174 19.9424 8.66353 20.0025 8.99108 19.9999Z" fill="white"/>
</svg>
