<svg width="20" height="17" viewBox="0 0 20 17" fill="none" xmlns="http://www.w3.org/2000/svg">
<path d="M9.83035 16.1839C9.61821 15.9422 9.51564 15.6302 9.5452 15.3166C9.57475 15.003 9.734 14.7134 9.98794 14.5114L16.6928 9.18172L11.0913 2.80217C10.8859 2.55978 10.7887 2.25032 10.8208 1.94045C10.8528 1.63058 11.0115 1.34508 11.2627 1.14545C11.5138 0.945816 11.8373 0.848025 12.1635 0.873135C12.4897 0.898244 12.7924 1.04425 13.0066 1.27969L19.4081 8.57043C19.6202 8.81211 19.7228 9.12406 19.6933 9.43768C19.6637 9.75131 19.5044 10.0409 19.2505 10.2428L11.588 16.3338C11.334 16.5357 11.0062 16.6332 10.6766 16.6051C10.3469 16.577 10.0426 16.4255 9.83035 16.1839V16.1839Z" fill="white"/>
<path d="M0.683685 16.4898C0.471547 16.2481 0.368976 15.9361 0.398528 15.6225C0.428081 15.3089 0.587337 15.0193 0.841275 14.8174L7.5461 9.48763L1.94463 3.10807C1.73921 2.86569 1.64207 2.55623 1.67413 2.24636C1.70618 1.93648 1.86486 1.65099 2.116 1.45136C2.36714 1.25172 2.69063 1.15393 3.01681 1.17904C3.343 1.20415 3.64576 1.35015 3.8599 1.5856L10.2614 8.87634C10.4736 9.11802 10.5761 9.42997 10.5466 9.74359C10.517 10.0572 10.3578 10.3468 10.1038 10.5488L2.44137 16.6397C2.18737 16.8416 1.85951 16.9392 1.5299 16.911C1.20028 16.8829 0.895899 16.7314 0.683685 16.4898V16.4898Z" fill="white"/>
</svg>
