<svg width="16" height="16" viewBox="0 0 16 16" fill="none" xmlns="http://www.w3.org/2000/svg">
<circle r="6" transform="matrix(-1 0 0 1 8 8)" fill="#075171"/>
<path d="M15.9601 8.79807C16.1693 6.71087 15.5504 4.62498 14.2367 2.98966C12.9229 1.35435 11.0194 0.300462 8.93617 0.0549914C6.85291 -0.190479 4.75659 0.392108 3.09871 1.67727C1.44083 2.96244 0.354051 4.84735 0.0724463 6.92603C-0.209159 9.00471 0.336942 11.1108 1.59313 12.7908C2.84931 14.4707 4.71507 15.5901 6.78855 15.9077C8.86202 16.2254 10.9773 15.7159 12.6788 14.4891C14.3803 13.2623 15.6065 10.8657 15.9601 8.79807L15.2476 8.72664C14.9256 10.6092 13.8092 12.7913 12.26 13.9083C10.7108 15.0253 8.78487 15.4891 6.89698 15.1999C5.00909 14.9107 3.31033 13.8915 2.16658 12.362C1.02283 10.8324 0.525607 8.91478 0.782007 7.02215C1.03841 5.12953 2.02791 3.41333 3.5374 2.24319C5.04689 1.07306 6.95558 0.542614 8.85237 0.766114C10.7492 0.989614 12.4823 1.94917 13.6785 3.43812C14.8746 4.92706 15.4381 6.82625 15.2476 8.72664L15.9601 8.79807Z" fill="#075171"/>
</svg>